<svg xmlns="http://www.w3.org/2000/svg" version="1.1" xmlns:xlink="http://www.w3.org/1999/xlink" xmlns:svgjs="http://svgjs.dev/svgjs" width="1500" height="1500" viewBox="0 0 1500 1500"><rect width="1500" height="1500" fill="#001f3f"></rect><g transform="matrix(0.6666666666666666,0,0,0.6666666666666666,249.39393939393938,598.1868380147267)"><svg viewBox="0 0 396 120" data-background-color="#001f3f" preserveAspectRatio="xMidYMid meet" height="454" width="1500" xmlns="http://www.w3.org/2000/svg" xmlns:xlink="http://www.w3.org/1999/xlink"><g id="tight-bounds" transform="matrix(1,0,0,1,0.2400000000000091,0.1902404346898834)"><svg viewBox="0 0 395.52 119.61951913062022" height="119.61951913062022" width="395.52"><g><svg viewBox="0 0 609.9144144380091 184.46012582399993" height="119.61951913062022" width="395.52"><g transform="matrix(1,0,0,1,214.39441443800916,27.2254007787554)"><svg viewBox="0 0 395.52 130.00932426648913" height="130.00932426648913" width="395.52"><g id="textblocktransform"><svg viewBox="0 0 395.52 130.00932426648913" height="130.00932426648913" width="395.52" id="textblock"><g><svg viewBox="0 0 395.52 130.00932426648913" height="130.00932426648913" width="395.52"><g transform="matrix(1,0,0,1,0,0)"><svg width="395.52" viewBox="3.8600000000000003 -34.35 124.21 41.5" height="130.00932426648913" data-palette-color="#2ecc40"><path d="M10.69-11.72L20.24-2.15 17.36 0.78 4.86-11.72 17.36-24.22 20.24-21.26 10.69-11.72ZM27.19-6.54L27.19-6.54Q27.19-8.54 28.27-10.05 29.34-11.55 31.09-12.55 32.83-13.55 35.09-14.05 37.35-14.55 39.69-14.55L39.69-14.55Q40.99-14.55 41.92-14.5 42.84-14.45 43.8-14.36L43.8-14.36 43.8-15.26Q43.8-17.04 42.42-17.92 41.04-18.8 38.79-18.8L38.79-18.8Q36.74-18.8 34.62-18.23 32.49-17.65 30.59-16.55L30.59-16.55 28.54-20.51Q30.78-21.8 33.36-22.55 35.94-23.29 38.79-23.29L38.79-23.29Q40.65-23.29 42.44-22.88 44.24-22.46 45.66-21.51 47.09-20.56 47.95-19.03 48.8-17.5 48.8-15.26L48.8-15.26 48.8 0 43.8 0 43.8-3.34Q42.6-1.49 40.27-0.46 37.94 0.56 35.25 0.56L35.25 0.56Q33.59 0.56 32.11 0.11 30.64-0.34 29.56-1.25 28.49-2.15 27.84-3.48 27.19-4.81 27.19-6.54ZM36.55-3.96L36.55-3.96Q38.03-3.96 39.34-4.33 40.65-4.71 41.65-5.38 42.65-6.05 43.22-7.01 43.8-7.96 43.8-9.11L43.8-9.11 43.8-9.96Q42.6-10.16 41.55-10.18 40.5-10.21 39.69-10.21L39.69-10.21Q35.98-10.21 34.09-9.23 32.2-8.25 32.2-6.81L32.2-6.81Q32.2-3.96 36.55-3.96ZM82.17 4.3L100.87-33.35 104.63-31.49 85.93 6.15 82.17 4.3ZM111.66-2.15L121.23-11.72 111.66-21.26 114.57-24.22 127.07-11.72 114.57 0.78 111.66-2.15Z" opacity="1" transform="matrix(1,0,0,1,0,0)" fill="#2ecc40" class="wordmark-text-0" data-fill-palette-color="primary" id="text-0"></path></svg></g></svg></g></svg></g></svg></g><g><svg viewBox="0 0 184.46012582399993 184.46012582399993" height="184.46012582399993" width="184.46012582399993"><g><svg></svg></g><g id="icon-0"><svg viewBox="0 0 184.46012582399993 184.46012582399993" height="184.46012582399993" width="184.46012582399993"><g><rect width="167.72207736959993" height="167.72207736959993" x="8.3690242272" y="8.3690242272" fill="#2ecc40" data-fill-palette-color="accent"></rect><rect width="167.72207736959993" height="167.72207736959993" x="16.738048454399994" y="5.329070518200751e-15" fill="#2ecc40" opacity="0.5" data-fill-palette-color="accent"></rect></g><g transform="matrix(1,0,0,1,26.557374530095643,23.91149779199999)"><svg viewBox="0 0 131.34537676380864 136.63713023999995" height="136.63713023999995" width="131.34537676380864"><g><svg xmlns="http://www.w3.org/2000/svg" xmlns:xlink="http://www.w3.org/1999/xlink" version="1.1" x="0" y="0" viewBox="9.84 8.222 80.32 83.55600000000001" enable-background="new 0 0 100 100" xml:space="preserve" height="136.63713023999995" width="131.34537676380864" class="icon-dxe-0" data-fill-palette-color="quaternary" id="dxe-0"><g fill="#000000" data-fill-palette-color="quaternary"><path fill="none" d="M23.352 59.069A3.12 3.12 0 0 0 20.235 62.188 3.12 3.12 0 0 0 23.352 65.306 3.12 3.12 0 0 0 26.471 62.188 3.123 3.123 0 0 0 23.352 59.069"></path><path fill="none" d="M10.844 63.986C10.844 65.705 12.244 67.104 13.963 67.104S17.082 65.705 17.082 63.986C17.082 62.266 15.682 60.868 13.963 60.868S10.844 62.267 10.844 63.986"></path><path fill="none" d="M23.418 27.693C23.418 25.974 22.018 24.575 20.299 24.575S17.18 25.974 17.18 27.693C17.18 29.413 18.58 30.811 20.299 30.811S23.418 29.413 23.418 27.693"></path><path fill="none" d="M20.336 42.986A3.12 3.12 0 0 0 17.219 46.104 3.12 3.12 0 0 0 20.336 49.222 3.12 3.12 0 0 0 23.455 46.104 3.12 3.12 0 0 0 20.336 42.986"></path><path fill="none" d="M54.449 15.463A3.12 3.12 0 0 0 57.568 12.345 3.12 3.12 0 0 0 54.449 9.227 3.12 3.12 0 0 0 51.332 12.345 3.12 3.12 0 0 0 54.449 15.463"></path><path fill="none" d="M82.82 27.693A3.12 3.12 0 0 0 79.701 24.575 3.12 3.12 0 0 0 76.584 27.693 3.12 3.12 0 0 0 79.701 30.811 3.12 3.12 0 0 0 82.82 27.693"></path><path fill="none" d="M32.938 15.695A3.12 3.12 0 0 0 29.821 18.813 3.12 3.12 0 0 0 32.938 21.931 3.12 3.12 0 0 0 36.057 18.813 3.123 3.123 0 0 0 32.938 15.695"></path><path fill="none" d="M79.664 49.223A3.12 3.12 0 0 0 82.781 46.105 3.12 3.12 0 0 0 79.664 42.987 3.12 3.12 0 0 0 79.664 49.223"></path><path fill="none" d="M76.648 59.069A3.12 3.12 0 0 0 73.529 62.188 3.12 3.12 0 0 0 76.648 65.306 3.12 3.12 0 0 0 79.765 62.188 3.12 3.12 0 0 0 76.648 59.069"></path><path fill="none" d="M45.104 84.537A3.12 3.12 0 0 0 41.987 87.655 3.12 3.12 0 0 0 45.104 90.773 3.12 3.12 0 0 0 48.223 87.655 3.12 3.12 0 0 0 45.104 84.537"></path><path fill="none" d="M86.037 60.868A3.12 3.12 0 0 0 82.92 63.986C82.92 65.705 84.318 67.104 86.037 67.104S89.156 65.705 89.156 63.986 87.756 60.868 86.037 60.868"></path><path fill="none" d="M66.615 78.067A3.12 3.12 0 0 0 63.498 81.186 3.12 3.12 0 0 0 66.615 84.304 3.12 3.12 0 0 0 69.734 81.186 3.12 3.12 0 0 0 66.615 78.067"></path><path d="M63.457 67.553V32.697C63.457 31.794 62.941 31.061 62.303 31.061H37.713C37.076 31.061 36.559 31.793 36.559 32.697V67.552C36.559 68.455 37.077 69.188 37.713 69.188H62.303C62.941 69.188 63.457 68.456 63.457 67.553" fill="#000000" data-fill-palette-color="quaternary"></path><path d="M45.904 19.316V23.621A2.84 2.84 0 0 0 43.558 26.418 2.849 2.849 0 1 0 49.256 26.418C49.256 25.018 48.242 23.859 46.91 23.621V18.813A0.503 0.503 0 0 0 46.406 18.311H37.01C36.76 16.276 35.041 14.69 32.938 14.69 30.665 14.69 28.815 16.54 28.815 18.813S30.665 22.937 32.938 22.937C35.042 22.937 36.76 21.35 37.01 19.316zM32.938 21.932A3.12 3.12 0 0 1 29.821 18.814 3.12 3.12 0 0 1 32.938 15.696 3.12 3.12 0 0 1 36.057 18.814 3.12 3.12 0 0 1 32.938 21.932" fill="#000000" data-fill-palette-color="quaternary"></path><path d="M53.947 16.418V23.621A2.844 2.844 0 0 0 54.449 29.267 2.845 2.845 0 0 0 54.951 23.621V16.418C56.986 16.167 58.572 14.447 58.572 12.345A4.127 4.127 0 0 0 54.449 8.222 4.13 4.13 0 0 0 50.326 12.345C50.326 14.446 51.912 16.166 53.947 16.418M54.449 9.227A3.12 3.12 0 0 1 57.568 12.345 3.12 3.12 0 0 1 54.449 15.463 3.12 3.12 0 0 1 51.332 12.345 3.12 3.12 0 0 1 54.449 9.227" fill="#000000" data-fill-palette-color="quaternary"></path><path d="M66.615 77.063C64.513 77.063 62.795 78.65 62.543 80.684H53.648V76.379A2.84 2.84 0 0 0 55.996 73.581 2.849 2.849 0 0 0 50.298 73.581 2.845 2.845 0 0 0 52.644 76.379V81.187C52.644 81.464 52.869 81.689 53.146 81.689H62.542C62.794 83.724 64.513 85.31 66.614 85.31A4.13 4.13 0 0 0 70.737 81.187 4.126 4.126 0 0 0 66.615 77.063M66.615 84.305A3.12 3.12 0 0 1 63.498 81.187 3.12 3.12 0 0 1 66.615 78.068 3.12 3.12 0 0 1 69.734 81.187 3.12 3.12 0 0 1 66.615 84.305" fill="#000000" data-fill-palette-color="quaternary"></path><path d="M45.607 83.582V76.379A2.844 2.844 0 0 0 45.103 70.733 2.844 2.844 0 0 0 44.601 76.379V83.582C42.566 83.833 40.98 85.553 40.98 87.655 40.98 89.928 42.83 91.778 45.103 91.778S49.228 89.928 49.228 87.655C49.229 85.554 47.641 83.834 45.607 83.582M45.104 90.773A3.12 3.12 0 0 1 41.987 87.655 3.12 3.12 0 0 1 45.104 84.537 3.12 3.12 0 0 1 48.223 87.655 3.12 3.12 0 0 1 45.104 90.773" fill="#000000" data-fill-palette-color="quaternary"></path><path d="M68.605 40.91A2.84 2.84 0 0 0 71.402 38.564H79.412A0.5 0.5 0 0 0 79.914 38.062V31.802H79.848C82.053 31.723 83.825 29.916 83.825 27.693A4.127 4.127 0 0 0 79.702 23.57 4.13 4.13 0 0 0 75.579 27.693C75.579 29.917 77.352 31.723 79.558 31.802H78.91V37.559H71.404A2.84 2.84 0 0 0 68.607 35.213 2.849 2.849 0 0 0 68.605 40.91M76.584 27.693A3.12 3.12 0 0 1 79.701 24.575 3.12 3.12 0 0 1 82.82 27.693 3.12 3.12 0 0 1 79.701 30.811 3.12 3.12 0 0 1 76.584 27.693" fill="#000000" data-fill-palette-color="quaternary"></path><path d="M86.541 59.913V53.918A0.503 0.503 0 0 0 86.037 53.416H71.348A2.84 2.84 0 0 0 68.606 51.298 2.849 2.849 0 0 0 68.606 56.995 2.84 2.84 0 0 0 71.426 54.422H85.535V59.914C83.5 60.166 81.914 61.886 81.914 63.987 81.914 66.26 83.764 68.11 86.037 68.11S90.16 66.26 90.16 63.987C90.16 61.885 88.574 60.165 86.541 59.913M86.037 67.104A3.12 3.12 0 0 1 82.92 63.986C82.92 62.266 84.318 60.868 86.037 60.868S89.156 62.266 89.156 63.986 87.756 67.104 86.037 67.104" fill="#000000" data-fill-palette-color="quaternary"></path><path d="M68.605 48.952A2.845 2.845 0 0 0 71.404 46.606H75.592C75.842 48.641 77.563 50.227 79.664 50.227 81.937 50.227 83.787 48.377 83.787 46.104S81.937 41.98 79.664 41.98C77.562 41.98 75.844 43.567 75.592 45.6H71.404A2.845 2.845 0 0 0 65.757 46.104 2.85 2.85 0 0 0 68.605 48.952M79.664 42.986A3.12 3.12 0 0 1 82.781 46.104 3.12 3.12 0 0 1 79.664 49.222 3.12 3.12 0 0 1 76.547 46.104 3.12 3.12 0 0 1 79.664 42.986" fill="#000000" data-fill-palette-color="quaternary"></path><path d="M76.648 58.064C74.546 58.064 72.828 59.651 72.576 61.684H71.404A2.845 2.845 0 0 0 65.757 62.188 2.845 2.845 0 0 0 71.404 62.69H72.576C72.826 64.725 74.547 66.311 76.648 66.311 78.921 66.311 80.771 64.461 80.771 62.188S78.922 58.064 76.648 58.064M76.648 65.307A3.12 3.12 0 0 1 73.529 62.189 3.12 3.12 0 0 1 76.648 59.07 3.12 3.12 0 0 1 79.765 62.189 3.12 3.12 0 0 1 76.648 65.307" fill="#000000" data-fill-palette-color="quaternary"></path><path d="M31.395 35.214A2.844 2.844 0 0 0 28.598 37.56H21.092V31.803H20.444C22.649 31.724 24.423 29.917 24.423 27.694 24.423 25.421 22.573 23.571 20.3 23.571S16.177 25.421 16.177 27.694A4.12 4.12 0 0 0 20.154 31.803H20.088V38.063C20.088 38.34 20.313 38.565 20.59 38.565H28.6A2.843 2.843 0 0 0 34.245 38.063 2.85 2.85 0 0 0 31.395 35.214M17.18 27.693C17.18 25.974 18.58 24.575 20.299 24.575S23.418 25.974 23.418 27.693C23.418 29.413 22.018 30.811 20.299 30.811S17.18 29.413 17.18 27.693" fill="#000000" data-fill-palette-color="quaternary"></path><path d="M31.395 51.298A2.84 2.84 0 0 0 28.653 53.416H13.963A0.504 0.504 0 0 0 13.459 53.918V59.913C11.426 60.165 9.84 61.885 9.84 63.986 9.84 66.259 11.69 68.109 13.963 68.109S18.086 66.259 18.086 63.986C18.086 61.884 16.5 60.165 14.465 59.913V54.421H28.574A2.84 2.84 0 0 0 31.394 56.994C32.968 56.994 34.242 55.72 34.242 54.146S32.969 51.298 31.395 51.298M17.082 63.986C17.082 65.705 15.682 67.104 13.963 67.104S10.844 65.705 10.844 63.986C10.844 62.266 12.244 60.868 13.963 60.868S17.082 62.267 17.082 63.986" fill="#000000" data-fill-palette-color="quaternary"></path><path d="M31.395 43.256A2.85 2.85 0 0 0 28.596 45.601H24.408C24.158 43.568 22.437 41.981 20.336 41.981 18.063 41.981 16.213 43.832 16.213 46.105S18.063 50.228 20.336 50.228C22.438 50.228 24.158 48.642 24.408 46.607H28.596A2.846 2.846 0 0 0 34.243 46.105 2.85 2.85 0 0 0 31.395 43.256M20.336 49.223A3.12 3.12 0 0 1 17.219 46.105 3.12 3.12 0 0 1 20.336 42.987 3.12 3.12 0 0 1 23.455 46.105 3.12 3.12 0 0 1 20.336 49.223" fill="#000000" data-fill-palette-color="quaternary"></path><path d="M31.395 59.34A2.85 2.85 0 0 0 28.596 61.685H27.424C27.174 59.652 25.453 58.065 23.352 58.065 21.079 58.065 19.229 59.916 19.229 62.189S21.079 66.312 23.352 66.312C25.454 66.312 27.174 64.726 27.424 62.691H28.596A2.846 2.846 0 0 0 34.243 62.189 2.85 2.85 0 0 0 31.395 59.34M23.352 65.307A3.12 3.12 0 0 1 20.235 62.189 3.12 3.12 0 0 1 23.352 59.07 3.12 3.12 0 0 1 26.471 62.189 3.123 3.123 0 0 1 23.352 65.307" fill="#000000" data-fill-palette-color="quaternary"></path></g></svg></g></svg></g></svg></g></svg></g></svg></g><defs></defs></svg><rect width="395.52" height="119.61951913062022" fill="none" stroke="none" visibility="hidden"></rect></g></svg></g></svg>